<svg xmlns="http://www.w3.org/2000/svg" xmlns:xlink="http://www.w3.org/1999/xlink" width="500" zoomAndPan="magnify" viewBox="0 0 375 374.999991" height="500" preserveAspectRatio="xMidYMid meet" version="1.0"><defs><g/><clipPath id="46b5c4e09c"><path d="M 81 85 L 293.917969 85 L 293.917969 289.738281 L 81 289.738281 Z M 81 85 " clip-rule="nonzero"/></clipPath><clipPath id="d4c85d7f6b"><path d="M 152.207031 132.199219 L 222.707031 132.199219 L 222.707031 242.449219 L 152.207031 242.449219 Z M 152.207031 132.199219 " clip-rule="nonzero"/></clipPath></defs><rect x="-37.5" width="450" fill="#ffffff" y="-37.499999" height="449.999989" fill-opacity="1"/><rect x="-37.5" width="450" fill="#000000" y="-37.499999" height="449.999989" fill-opacity="1"/><g clip-path="url(#46b5c4e09c)"><path fill="#f9bf3b" d="M 263.554688 115.402344 C 245.132812 96.984375 219.667969 85.589844 191.550781 85.589844 C 163.433594 85.589844 137.972656 96.980469 119.546875 115.402344 C 109.769531 125.171875 101.976562 136.914062 96.8125 149.984375 C 109.410156 124.933594 119.269531 135.585938 119.269531 135.585938 C 107.28125 133.296875 99.628906 144.761719 96.769531 150.097656 C 94.300781 156.371094 92.4375 162.945312 91.25 169.753906 C 92.59375 165.941406 96.46875 157.460938 105.109375 154.546875 C 116.394531 150.738281 108.09375 154.292969 100.664062 160.503906 C 94.816406 165.394531 91.976562 169.492188 91.03125 171.015625 C 90.195312 176.191406 89.75 181.496094 89.722656 186.90625 C 90.335938 181.707031 92.566406 171.953125 100.703125 170.820312 C 111.511719 169.316406 92.863281 177.359375 89.738281 189.039062 C 90.179688 216.476562 101.488281 241.28125 119.550781 259.328125 C 137.976562 277.742188 163.433594 289.140625 191.554688 289.140625 C 219.675781 289.140625 245.136719 277.75 263.5625 259.328125 C 281.988281 240.914062 293.390625 215.46875 293.390625 187.367188 C 293.390625 159.269531 281.980469 133.820312 263.554688 115.402344 M 91.128906 167.414062 C 89.898438 163.605469 80.957031 161.25 85.683594 158.355469 C 89.898438 155.777344 91.207031 163.152344 91.515625 165.558594 C 91.652344 164.933594 91.792969 164.3125 91.9375 163.699219 C 92.699219 156.65625 92.804688 143.320312 84.421875 135.445312 C 84.421875 135.445312 97.675781 132.496094 93.789062 156.921875 C 95.738281 150.675781 98.265625 144.683594 101.316406 139.011719 C 103.191406 134.316406 105.667969 126.664062 108.660156 120.546875 C 108.078125 120.023438 106.40625 118.042969 106.894531 112.769531 C 106.527344 112.609375 106.289062 112.226562 106.335938 111.804688 C 106.5625 109.804688 107.589844 107.316406 107.59375 107.304688 C 107.78125 106.824219 108.320312 106.582031 108.804688 106.765625 C 109.285156 106.953125 109.527344 107.492188 109.339844 107.972656 C 109.339844 107.980469 108.398438 110.269531 108.199219 112.007812 C 108.152344 112.4375 107.828125 112.765625 107.417969 112.835938 C 106.96875 117.625 108.328125 119.492188 108.902344 120.054688 C 109.910156 118.046875 110.976562 116.226562 112.09375 114.75 C 112.105469 114.742188 115.003906 110.957031 116.953125 107.980469 C 116.695312 107.339844 115.753906 104.46875 117.207031 100.054688 C 117.0625 99.898438 117.003906 99.679688 117.070312 99.460938 C 117.445312 98.164062 118.410156 96.625 118.414062 96.617188 C 118.589844 96.316406 118.976562 96.222656 119.273438 96.398438 C 119.578125 96.574219 119.671875 96.960938 119.496094 97.257812 C 119.496094 97.261719 118.609375 98.671875 118.28125 99.804688 C 118.207031 100.074219 117.960938 100.25 117.699219 100.261719 C 116.503906 103.929688 117.019531 106.445312 117.324219 107.429688 C 119.359375 104.53125 122.769531 101.644531 122.777344 101.640625 L 122.949219 101.839844 L 123.121094 102.042969 C 123.109375 102.050781 119.410156 105.183594 117.476562 108.152344 C 116.222656 110.074219 114.550781 112.363281 113.503906 113.761719 C 115.152344 112.648438 117.96875 110.808594 120.039062 109.804688 C 120.058594 109.613281 120.160156 109.4375 120.335938 109.328125 C 121.339844 108.710938 122.460938 107.480469 122.464844 107.476562 C 122.707031 107.226562 123.105469 107.21875 123.355469 107.457031 C 123.609375 107.699219 123.613281 108.09375 123.378906 108.347656 C 123.371094 108.351562 122.148438 109.691406 121 110.40625 C 120.746094 110.558594 120.421875 110.515625 120.21875 110.308594 C 117.332031 111.71875 112.992188 114.75 112.507812 115.089844 L 109.234375 120.59375 L 103.273438 135.515625 C 107.695312 128.019531 113.042969 121.132812 119.160156 115.019531 C 137.683594 96.503906 163.273438 85.050781 191.542969 85.050781 C 219.808594 85.050781 245.402344 96.503906 263.925781 115.019531 C 282.449219 133.535156 293.90625 159.105469 293.90625 187.359375 C 293.90625 215.609375 282.449219 241.1875 263.925781 259.695312 C 245.398438 278.210938 219.808594 289.664062 191.542969 289.664062 C 163.273438 289.664062 137.683594 278.210938 119.160156 259.695312 C 100.632812 241.183594 89.175781 215.609375 89.175781 187.359375 C 89.175781 185.019531 89.253906 182.695312 89.410156 180.390625 C 89.367188 179.988281 88.394531 171.457031 83.84375 167.21875 C 83.363281 167.1875 82.707031 166.835938 82.125 166.25 C 81.285156 165.410156 80.921875 164.414062 81.3125 164.023438 C 81.703125 163.628906 82.699219 163.992188 83.546875 164.832031 C 84.355469 165.636719 84.722656 166.59375 84.402344 167.015625 C 87.582031 170.136719 89.007812 175.242188 89.59375 178.148438 C 89.917969 174.519531 90.433594 170.933594 91.128906 167.414062 Z M 124.554688 100.417969 L 122.953125 101.847656 C 122.953125 101.847656 127.097656 101.96875 127.167969 100.207031 C 127.238281 98.445312 124.722656 99.785156 124.117188 100.816406 C 124.117188 100.816406 124.558594 99.5 124.3125 98.726562 C 124.066406 97.953125 122.621094 97.953125 122.585938 98.9375 C 122.550781 99.925781 122.960938 101.847656 122.960938 101.847656 " fill-opacity="1" fill-rule="evenodd"/></g><path fill="#f9bf3b" d="M 198.367188 150.910156 L 194.871094 150.910156 L 194.871094 142.097656 L 194.75 141.945312 C 194.6875 141.851562 192.988281 139.8125 187.515625 139.8125 C 182.042969 139.8125 180.339844 141.820312 180.28125 141.914062 L 180.15625 142.066406 L 180.15625 150.910156 L 176.664062 150.910156 L 176.664062 156.289062 L 198.367188 156.289062 Z M 181.394531 142.5625 C 181.855469 142.160156 183.558594 141.015625 187.515625 141.015625 C 191.503906 141.015625 193.171875 142.160156 193.636719 142.5625 L 193.636719 150.910156 L 181.394531 150.910156 Z M 197.128906 155.054688 L 177.898438 155.054688 L 177.898438 152.148438 L 197.128906 152.148438 Z M 188.597656 174.003906 L 186.402344 174.003906 C 174.5 174.003906 164.820312 183.679688 164.820312 195.585938 L 164.820312 211.414062 C 164.820312 223.316406 174.5 232.992188 186.402344 232.992188 L 188.597656 232.992188 C 200.5 232.992188 210.175781 223.316406 210.175781 211.414062 L 210.175781 195.585938 C 210.175781 183.679688 200.5 174.003906 188.597656 174.003906 Z M 208.9375 211.414062 C 208.9375 222.636719 199.820312 231.757812 188.597656 231.757812 L 186.402344 231.757812 C 175.179688 231.757812 166.058594 222.636719 166.058594 211.414062 L 166.058594 195.585938 C 166.058594 184.363281 175.179688 175.242188 186.402344 175.242188 L 188.597656 175.242188 C 199.820312 175.242188 208.9375 184.363281 208.9375 195.585938 Z M 200.621094 199.480469 L 194.007812 200.808594 L 199.601562 197.066406 C 200.808594 196.265625 201.457031 194.875 201.273438 193.421875 L 200.871094 190.144531 L 197.59375 189.742188 C 196.140625 189.554688 194.75 190.203125 193.945312 191.410156 L 190.203125 197.007812 L 191.535156 190.390625 C 191.8125 188.96875 191.285156 187.515625 190.140625 186.617188 L 187.515625 184.578125 L 184.886719 186.617188 C 183.742188 187.515625 183.1875 188.96875 183.496094 190.390625 L 184.824219 196.976562 L 181.082031 191.378906 C 180.28125 190.175781 178.886719 189.523438 177.433594 189.710938 L 174.128906 190.144531 L 173.726562 193.421875 C 173.539062 194.875 174.1875 196.265625 175.394531 197.066406 L 180.992188 200.808594 L 174.375 199.480469 C 172.953125 199.203125 171.5 199.726562 170.601562 200.871094 L 168.5625 203.5 L 170.601562 206.125 C 171.34375 207.085938 172.457031 207.609375 173.601562 207.609375 C 173.847656 207.609375 174.097656 207.578125 174.375 207.550781 L 180.992188 206.21875 L 175.394531 209.929688 C 174.1875 210.734375 173.539062 212.125 173.726562 213.578125 L 174.128906 216.855469 L 177.40625 217.257812 C 177.558594 217.289062 177.714844 217.289062 177.898438 217.289062 C 179.167969 217.289062 180.339844 216.667969 181.082031 215.585938 L 184.824219 209.992188 L 183.496094 216.578125 C 183.21875 218 183.742188 219.453125 184.886719 220.347656 L 187.515625 222.390625 L 190.140625 220.347656 C 191.285156 219.453125 191.84375 218 191.535156 216.578125 L 190.203125 209.960938 L 193.945312 215.554688 C 194.65625 216.636719 195.863281 217.257812 197.128906 217.257812 C 197.285156 217.257812 197.4375 217.257812 197.625 217.226562 L 200.902344 216.824219 L 201.304688 213.546875 C 201.488281 212.09375 200.839844 210.703125 199.632812 209.898438 L 194.039062 206.15625 L 200.652344 207.488281 C 200.902344 207.550781 201.148438 207.550781 201.425781 207.550781 C 202.601562 207.550781 203.683594 207.023438 204.425781 206.066406 L 206.464844 203.4375 L 204.425781 200.808594 C 203.496094 199.757812 202.046875 199.203125 200.621094 199.480469 Z M 194.964844 192.089844 C 195.523438 191.257812 196.449219 190.824219 197.4375 190.945312 L 199.757812 191.226562 L 200.035156 193.542969 C 200.160156 194.53125 199.726562 195.460938 198.890625 196.015625 L 190.792969 201.425781 L 189.214844 201.738281 L 189.523438 200.160156 Z M 176.074219 196.046875 C 175.242188 195.492188 174.808594 194.5625 174.929688 193.574219 L 175.210938 191.257812 L 177.527344 190.976562 C 178.519531 190.855469 179.445312 191.285156 180 192.121094 L 185.410156 200.222656 L 185.722656 201.828125 L 184.144531 201.519531 Z M 180.03125 214.9375 C 179.476562 215.773438 178.546875 216.207031 177.558594 216.082031 L 175.242188 215.804688 L 174.960938 213.484375 C 174.839844 212.496094 175.269531 211.566406 176.105469 211.011719 L 184.207031 205.601562 L 185.78125 205.292969 L 185.472656 206.898438 Z M 198.921875 210.980469 C 199.757812 211.535156 200.191406 212.464844 200.066406 213.453125 L 199.789062 215.773438 L 197.46875 216.050781 C 196.480469 216.175781 195.550781 215.742188 194.996094 214.90625 L 189.554688 206.835938 L 189.246094 205.261719 L 190.824219 205.570312 Z M 203.40625 201.644531 L 204.859375 203.5 L 203.40625 205.355469 C 202.785156 206.125 201.828125 206.496094 200.871094 206.3125 L 188.9375 203.929688 L 188.78125 204.765625 L 187.945312 204.921875 L 190.328125 216.855469 C 190.511719 217.8125 190.171875 218.800781 189.371094 219.390625 L 187.515625 220.84375 L 185.660156 219.390625 C 184.886719 218.769531 184.515625 217.8125 184.699219 216.855469 L 187.082031 204.921875 L 186.246094 204.765625 L 186.09375 203.929688 L 174.160156 206.3125 C 173.199219 206.496094 172.210938 206.15625 171.625 205.355469 L 170.171875 203.5 L 171.625 201.644531 C 172.242188 200.871094 173.199219 200.5 174.160156 200.683594 L 186.09375 203.066406 L 186.246094 202.230469 L 187.082031 202.078125 L 184.699219 190.144531 C 184.515625 189.183594 184.855469 188.195312 185.660156 187.609375 L 187.515625 186.15625 L 189.371094 187.609375 C 190.140625 188.226562 190.511719 189.183594 190.328125 190.144531 L 187.945312 202.078125 L 188.78125 202.230469 L 188.9375 203.066406 L 200.871094 200.683594 C 201.828125 200.5 202.816406 200.871094 203.40625 201.644531 Z M 203.40625 201.644531 " fill-opacity="1" fill-rule="nonzero"/><g clip-path="url(#d4c85d7f6b)"><path fill="#f9bf3b" d="M 217.566406 164.328125 L 202.941406 164.328125 L 202.941406 156.289062 L 211.042969 156.289062 L 211.042969 132.328125 L 163.957031 132.328125 L 163.957031 156.289062 L 172.054688 156.289062 L 172.054688 164.328125 L 152.207031 164.328125 L 152.207031 242.667969 L 222.789062 242.667969 L 222.789062 164.328125 Z M 165.191406 155.054688 L 165.191406 133.566406 L 209.835938 133.566406 L 209.835938 155.054688 Z M 173.292969 156.289062 L 201.703125 156.289062 L 201.703125 164.328125 L 173.292969 164.328125 Z M 153.445312 241.433594 L 153.445312 165.5625 L 157.433594 165.5625 L 157.433594 241.433594 Z M 158.667969 241.433594 L 158.667969 165.5625 L 216.328125 165.5625 L 216.328125 241.433594 Z M 221.585938 241.433594 L 217.597656 241.433594 L 217.597656 165.5625 L 221.585938 165.5625 Z M 187.515625 142.839844 C 186.09375 142.839844 184.917969 143.984375 184.917969 145.4375 C 184.917969 146.859375 186.0625 148.035156 187.515625 148.035156 C 188.96875 148.035156 190.109375 146.890625 190.109375 145.4375 C 190.082031 144.015625 188.9375 142.839844 187.515625 142.839844 Z M 187.515625 146.765625 C 186.773438 146.765625 186.152344 146.148438 186.152344 145.40625 C 186.152344 144.664062 186.773438 144.046875 187.515625 144.046875 C 188.257812 144.046875 188.875 144.664062 188.875 145.40625 C 188.84375 146.179688 188.257812 146.765625 187.515625 146.765625 Z M 187.515625 200.808594 C 186.03125 200.808594 184.824219 202.015625 184.824219 203.5 C 184.824219 204.984375 186.03125 206.1875 187.515625 206.1875 C 189 206.1875 190.203125 204.984375 190.203125 203.5 C 190.203125 202.015625 189 200.808594 187.515625 200.808594 Z M 187.515625 204.984375 C 186.710938 204.984375 186.0625 204.332031 186.0625 203.53125 C 186.0625 202.726562 186.710938 202.078125 187.515625 202.078125 C 188.316406 202.078125 188.96875 202.726562 188.96875 203.53125 C 188.96875 204.300781 188.316406 204.984375 187.515625 204.984375 Z M 187.515625 204.984375 " fill-opacity="1" fill-rule="nonzero"/></g><g fill="#f9bf3b" fill-opacity="1"><g transform="translate(155.984873, 118.080298)"><g><path d="M -1.328125 -8.96875 L 1.875 -0.921875 L 4.828125 -2.09375 C 5.578125 -2.394531 6.117188 -2.820312 6.453125 -3.375 C 6.785156 -3.9375 6.929688 -4.71875 6.890625 -5.71875 L 7.53125 -3 L 0.609375 -0.25 L -4.296875 -12.53125 L 2.734375 -15.328125 L 3.296875 -13.9375 C 2.734375 -14.164062 2.222656 -14.289062 1.765625 -14.3125 C 1.304688 -14.34375 0.828125 -14.28125 0.328125 -14.125 C -0.171875 -13.976562 -0.773438 -13.765625 -1.484375 -13.484375 L -2.90625 -12.921875 L -1.78125 -10.109375 C -1.46875 -9.328125 -1.09375 -8.78125 -0.65625 -8.46875 C -0.21875 -8.15625 0.289062 -8.03125 0.875 -8.09375 C 1.46875 -8.164062 2.164062 -8.363281 2.96875 -8.6875 L 3.515625 -7.3125 C 3.148438 -7.5 2.753906 -7.601562 2.328125 -7.625 C 1.910156 -7.65625 1.476562 -7.6875 1.03125 -7.71875 C 0.59375 -7.757812 0.175781 -7.863281 -0.21875 -8.03125 C -0.625 -8.195312 -0.992188 -8.507812 -1.328125 -8.96875 Z M -1.328125 -8.96875 "/></g></g></g><g fill="#f9bf3b" fill-opacity="1"><g transform="translate(164.09129, 114.815014)"><g><path d="M 7.5625 -4.90625 L 7.84375 -2.125 L 0.640625 -0.171875 L -2.8125 -12.9375 L -1.375 -13.328125 L 2.03125 -0.71875 L 5.078125 -1.546875 C 5.867188 -1.753906 6.457031 -2.113281 6.84375 -2.625 C 7.226562 -3.132812 7.46875 -3.894531 7.5625 -4.90625 Z M 7.5625 -4.90625 "/></g></g></g><g fill="#f9bf3b" fill-opacity="1"><g transform="translate(172.73474, 112.594375)"><g><path d="M 0.640625 -0.125 L -1.84375 -13.109375 L -0.453125 -13.375 L 2.03125 -0.390625 Z M 0.640625 -0.125 "/></g></g></g><g fill="#f9bf3b" fill-opacity="1"><g transform="translate(175.031696, 111.943771)"><g><path d="M 9.3125 -14.09375 C 8.675781 -14.03125 8.128906 -13.828125 7.671875 -13.484375 C 7.222656 -13.140625 6.84375 -12.691406 6.53125 -12.140625 C 6.226562 -11.597656 5.960938 -10.984375 5.734375 -10.296875 C 5.515625 -9.609375 5.3125 -8.882812 5.125 -8.125 L 10.625 -1.078125 L 8.9375 -0.90625 L 4.6875 -6.328125 C 4.507812 -5.554688 4.3125 -4.804688 4.09375 -4.078125 C 3.882812 -3.359375 3.628906 -2.707031 3.328125 -2.125 C 3.035156 -1.539062 2.671875 -1.066406 2.234375 -0.703125 C 1.804688 -0.335938 1.28125 -0.125 0.65625 -0.0625 L 0.640625 -0.171875 C 1.222656 -0.234375 1.726562 -0.445312 2.15625 -0.8125 C 2.582031 -1.1875 2.9375 -1.664062 3.21875 -2.25 C 3.507812 -2.832031 3.757812 -3.484375 3.96875 -4.203125 C 4.1875 -4.929688 4.394531 -5.6875 4.59375 -6.46875 L -0.671875 -13.234375 L 1.03125 -13.40625 L 5.015625 -8.28125 C 5.203125 -9.03125 5.410156 -9.742188 5.640625 -10.421875 C 5.867188 -11.109375 6.140625 -11.726562 6.453125 -12.28125 C 6.773438 -12.84375 7.171875 -13.296875 7.640625 -13.640625 C 8.109375 -13.984375 8.660156 -14.1875 9.296875 -14.25 Z M 9.3125 -14.09375 "/></g></g></g><g fill="#f9bf3b" fill-opacity="1"><g transform="translate(185.957942, 111.015109)"><g><path d="M 0.65625 -0.015625 L 0.484375 -13.234375 L 1.890625 -13.25 L 2.0625 -0.03125 Z M 0.65625 -0.015625 "/></g></g></g><g fill="#f9bf3b" fill-opacity="1"><g transform="translate(188.318564, 110.752979)"><g><path d="M 9.71875 0.78125 L 8.015625 -4.453125 C 7.210938 -4.429688 6.539062 -4.316406 6 -4.109375 C 5.46875 -3.910156 5.03125 -3.644531 4.6875 -3.3125 C 4.34375 -2.976562 4.054688 -2.628906 3.828125 -2.265625 C 3.597656 -1.898438 3.398438 -1.554688 3.234375 -1.234375 C 3.015625 -0.773438 2.789062 -0.40625 2.5625 -0.125 C 2.34375 0.15625 2.019531 0.273438 1.59375 0.234375 C 1.550781 0.222656 1.507812 0.207031 1.46875 0.1875 C 1.425781 0.175781 1.375 0.144531 1.3125 0.09375 C 0.820312 -0.175781 0.65625 -0.738281 0.8125 -1.59375 C 0.90625 -2 1.035156 -2.453125 1.203125 -2.953125 C 1.367188 -3.453125 1.59375 -3.992188 1.875 -4.578125 C 2.28125 -5.453125 2.75 -6.367188 3.28125 -7.328125 C 3.8125 -8.296875 4.367188 -9.25 4.953125 -10.1875 C 5.535156 -11.125 6.09375 -11.972656 6.625 -12.734375 L 6.765625 -12.71875 L 11.296875 0.90625 Z M 7.953125 -4.578125 L 5.734375 -11.1875 C 5.078125 -10.132812 4.410156 -9.023438 3.734375 -7.859375 C 3.066406 -6.703125 2.488281 -5.59375 2 -4.53125 C 1.726562 -3.945312 1.503906 -3.40625 1.328125 -2.90625 C 1.160156 -2.414062 1.035156 -1.972656 0.953125 -1.578125 C 0.910156 -1.191406 0.914062 -0.863281 0.96875 -0.59375 C 1.019531 -0.320312 1.15625 -0.140625 1.375 -0.046875 C 1.4375 -0.0234375 1.476562 -0.0078125 1.5 0 C 1.53125 0.0195312 1.570312 0.0390625 1.625 0.0625 C 2 0.125 2.285156 0.0195312 2.484375 -0.25 C 2.691406 -0.519531 2.890625 -0.863281 3.078125 -1.28125 C 3.253906 -1.625 3.457031 -1.976562 3.6875 -2.34375 C 3.914062 -2.71875 4.210938 -3.070312 4.578125 -3.40625 C 4.941406 -3.75 5.394531 -4.03125 5.9375 -4.25 C 6.476562 -4.46875 7.148438 -4.578125 7.953125 -4.578125 Z M 7.953125 -4.578125 "/></g></g></g><g fill="#f9bf3b" fill-opacity="1"><g transform="translate(199.812798, 111.830346)"><g/></g></g><g fill="#f9bf3b" fill-opacity="1"><g transform="translate(204.610692, 112.617018)"><g><path d="M 6.96875 -5.46875 C 6.539062 -5.59375 6.171875 -5.828125 5.859375 -6.171875 C 5.554688 -6.515625 5.316406 -6.929688 5.140625 -7.421875 C 4.941406 -7.992188 4.882812 -8.660156 4.96875 -9.421875 L 2.078125 0.59375 L 0.625 0.1875 L 4.296875 -12.515625 L 7.484375 -11.609375 C 8.378906 -11.347656 9.160156 -11.007812 9.828125 -10.59375 C 10.503906 -10.1875 11 -9.710938 11.3125 -9.171875 C 11.625 -8.640625 11.675781 -8.019531 11.46875 -7.3125 C 11.28125 -6.65625 10.941406 -6.160156 10.453125 -5.828125 C 9.972656 -5.503906 9.425781 -5.316406 8.8125 -5.265625 C 8.207031 -5.222656 7.59375 -5.289062 6.96875 -5.46875 Z M 10.03125 -7.734375 C 10.226562 -8.421875 10.222656 -9.015625 10.015625 -9.515625 C 9.816406 -10.015625 9.476562 -10.421875 9 -10.734375 C 8.519531 -11.054688 8 -11.300781 7.4375 -11.46875 L 5.703125 -11.96875 L 5.359375 -10.78125 C 5.179688 -10.164062 5.082031 -9.578125 5.0625 -9.015625 C 5.050781 -8.453125 5.117188 -7.9375 5.265625 -7.46875 C 5.566406 -6.488281 6.144531 -5.875 7 -5.625 C 7.601562 -5.457031 8.1875 -5.519531 8.75 -5.8125 C 9.320312 -6.113281 9.75 -6.753906 10.03125 -7.734375 Z M 10.03125 -7.734375 "/></g></g></g><g fill="#f9bf3b" fill-opacity="1"><g transform="translate(213.422735, 115.040976)"><g><path d="M 8.921875 3.953125 L 9.046875 -1.546875 C 8.273438 -1.796875 7.601562 -1.910156 7.03125 -1.890625 C 6.457031 -1.878906 5.953125 -1.773438 5.515625 -1.578125 C 5.078125 -1.378906 4.691406 -1.140625 4.359375 -0.859375 C 4.023438 -0.585938 3.722656 -0.332031 3.453125 -0.09375 C 3.097656 0.257812 2.769531 0.53125 2.46875 0.71875 C 2.164062 0.914062 1.816406 0.925781 1.421875 0.75 C 1.390625 0.71875 1.351562 0.6875 1.3125 0.65625 C 1.269531 0.632812 1.234375 0.585938 1.203125 0.515625 C 0.828125 0.0976562 0.859375 -0.476562 1.296875 -1.21875 C 1.515625 -1.582031 1.785156 -1.972656 2.109375 -2.390625 C 2.441406 -2.804688 2.832031 -3.242188 3.28125 -3.703125 C 3.945312 -4.390625 4.691406 -5.097656 5.515625 -5.828125 C 6.347656 -6.566406 7.191406 -7.28125 8.046875 -7.96875 C 8.898438 -8.65625 9.703125 -9.273438 10.453125 -9.828125 L 10.59375 -9.765625 L 10.359375 4.59375 Z M 9.03125 -1.6875 L 9.125 -8.65625 C 8.144531 -7.875 7.144531 -7.046875 6.125 -6.171875 C 5.113281 -5.296875 4.195312 -4.441406 3.375 -3.609375 C 2.9375 -3.148438 2.550781 -2.71875 2.21875 -2.3125 C 1.894531 -1.90625 1.628906 -1.523438 1.421875 -1.171875 C 1.265625 -0.816406 1.160156 -0.503906 1.109375 -0.234375 C 1.066406 0.0351562 1.132812 0.25 1.3125 0.40625 C 1.351562 0.457031 1.382812 0.492188 1.40625 0.515625 C 1.4375 0.535156 1.472656 0.5625 1.515625 0.59375 C 1.835938 0.78125 2.144531 0.78125 2.4375 0.59375 C 2.726562 0.40625 3.023438 0.144531 3.328125 -0.1875 C 3.609375 -0.445312 3.914062 -0.710938 4.25 -0.984375 C 4.59375 -1.265625 4.992188 -1.503906 5.453125 -1.703125 C 5.910156 -1.898438 6.425781 -2.007812 7 -2.03125 C 7.582031 -2.0625 8.257812 -1.945312 9.03125 -1.6875 Z M 9.03125 -1.6875 "/></g></g></g><g fill="#f9bf3b" fill-opacity="1"><g transform="translate(223.865616, 119.588222)"><g><path d="M 8.953125 -2.921875 C 9.421875 -2.441406 9.707031 -1.914062 9.8125 -1.34375 C 9.914062 -0.769531 9.921875 -0.171875 9.828125 0.453125 C 9.742188 1.078125 9.65625 1.707031 9.5625 2.34375 C 9.46875 2.914062 9.394531 3.46875 9.34375 4 C 9.300781 4.53125 9.335938 5 9.453125 5.40625 C 9.566406 5.8125 9.796875 6.125 10.140625 6.34375 L 10.0625 6.46875 C 9.238281 5.9375 8.660156 5.40625 8.328125 4.875 C 7.992188 4.351562 7.820312 3.832031 7.8125 3.3125 C 7.800781 2.800781 7.878906 2.296875 8.046875 1.796875 C 8.222656 1.304688 8.421875 0.828125 8.640625 0.359375 C 8.859375 -0.109375 9.03125 -0.5625 9.15625 -1 C 9.28125 -1.4375 9.285156 -1.847656 9.171875 -2.234375 C 9.054688 -2.617188 8.742188 -2.972656 8.234375 -3.296875 C 7.429688 -3.804688 7.035156 -4.597656 7.046875 -5.671875 C 7.054688 -6.285156 7.195312 -6.953125 7.46875 -7.671875 L 1.796875 1.15625 L 0.546875 0.359375 L 7.703125 -10.78125 L 10.484375 -9 C 11.253906 -8.507812 11.898438 -7.972656 12.421875 -7.390625 C 12.953125 -6.816406 13.296875 -6.222656 13.453125 -5.609375 C 13.609375 -5.003906 13.492188 -4.40625 13.109375 -3.8125 C 12.773438 -3.289062 12.378906 -2.925781 11.921875 -2.71875 C 11.460938 -2.519531 10.976562 -2.441406 10.46875 -2.484375 C 9.957031 -2.535156 9.453125 -2.679688 8.953125 -2.921875 Z M 11.859375 -4.609375 C 12.242188 -5.203125 12.40625 -5.757812 12.34375 -6.28125 C 12.28125 -6.8125 12.066406 -7.289062 11.703125 -7.71875 C 11.347656 -8.15625 10.914062 -8.535156 10.40625 -8.859375 L 8.875 -9.84375 L 8.25 -8.875 C 7.875 -8.289062 7.601562 -7.734375 7.4375 -7.203125 C 7.28125 -6.671875 7.207031 -6.160156 7.21875 -5.671875 C 7.226562 -5.210938 7.320312 -4.773438 7.5 -4.359375 C 7.6875 -3.953125 7.957031 -3.632812 8.3125 -3.40625 L 8.421875 -3.328125 C 8.929688 -3.035156 9.492188 -2.96875 10.109375 -3.125 C 10.734375 -3.28125 11.316406 -3.773438 11.859375 -4.609375 Z M 11.859375 -4.609375 "/></g></g></g><g fill="#f9bf3b" fill-opacity="1"><g transform="translate(233.981476, 126.198104)"><g><path d="M 7.3125 -5.34375 L 1.59375 1.359375 L 0.5 0.421875 L 9.078125 -9.640625 L 14.828125 -4.734375 L 13.859375 -3.59375 C 13.796875 -4.195312 13.671875 -4.703125 13.484375 -5.109375 C 13.304688 -5.523438 13.03125 -5.921875 12.65625 -6.296875 C 12.289062 -6.671875 11.816406 -7.109375 11.234375 -7.609375 L 10.078125 -8.59375 L 8.109375 -6.28125 C 7.566406 -5.644531 7.257812 -5.0625 7.1875 -4.53125 C 7.125 -4 7.257812 -3.484375 7.59375 -2.984375 C 7.9375 -2.484375 8.4375 -1.953125 9.09375 -1.390625 L 8.140625 -0.265625 C 8.117188 -0.691406 8.019531 -1.097656 7.84375 -1.484375 C 7.664062 -1.878906 7.488281 -2.28125 7.3125 -2.6875 C 7.132812 -3.09375 7.023438 -3.515625 6.984375 -3.953125 C 6.953125 -4.390625 7.0625 -4.851562 7.3125 -5.34375 Z M 7.3125 -5.34375 "/></g></g></g><g fill="#f9bf3b" fill-opacity="1"><g transform="translate(240.432709, 131.554151)"><g><path d="M 11.234375 -7.328125 L 4.984375 -1.640625 C 4.410156 -1.117188 3.976562 -0.53125 3.6875 0.125 C 3.40625 0.78125 3.273438 1.441406 3.296875 2.109375 C 3.328125 2.773438 3.519531 3.394531 3.875 3.96875 C 4.238281 4.539062 4.773438 5.007812 5.484375 5.375 C 6.328125 5.820312 7.195312 5.976562 8.09375 5.84375 C 8.988281 5.71875 9.832031 5.296875 10.625 4.578125 C 11.144531 4.097656 11.695312 3.582031 12.28125 3.03125 C 12.875 2.476562 13.4375 1.898438 13.96875 1.296875 C 14.5 0.703125 14.953125 0.117188 15.328125 -0.453125 C 15.703125 -1.023438 15.929688 -1.5625 16.015625 -2.0625 L 17 -0.984375 L 10.75 4.703125 C 9.976562 5.398438 9.125 5.828125 8.1875 5.984375 C 7.25 6.148438 6.316406 6 5.390625 5.53125 C 4.609375 5.101562 3.96875 4.550781 3.46875 3.875 C 2.96875 3.207031 2.632812 2.484375 2.46875 1.703125 C 2.3125 0.921875 2.351562 0.140625 2.59375 -0.640625 C 2.832031 -1.421875 3.296875 -2.117188 3.984375 -2.734375 L 10.234375 -8.421875 Z M 11.234375 -7.328125 "/></g></g></g><g fill="#f9bf3b" fill-opacity="1"><g transform="translate(247.754831, 139.475727)"><g><path d="M 17.640625 2.6875 L 6.640625 10 L 5.859375 8.8125 L 16.484375 1.75 C 15.929688 1.363281 15.296875 1.144531 14.578125 1.09375 C 13.859375 1.039062 13.09375 1.097656 12.28125 1.265625 C 11.46875 1.441406 10.648438 1.695312 9.828125 2.03125 C 9.015625 2.375 8.222656 2.75 7.453125 3.15625 C 6.679688 3.5625 5.96875 3.960938 5.3125 4.359375 C 4.65625 4.765625 4.085938 5.125 3.609375 5.4375 L 3.515625 5.28125 L 10.40625 -5.375 L 11.140625 -6.484375 L 0.421875 0.640625 L 0.359375 0.546875 L 11.359375 -6.765625 L 12.21875 -5.484375 L 6.375 3.5625 C 7.132812 3.132812 7.9375 2.726562 8.78125 2.34375 C 9.625 1.957031 10.472656 1.632812 11.328125 1.375 C 12.179688 1.125 13.007812 0.976562 13.8125 0.9375 C 14.613281 0.90625 15.34375 1.019531 16 1.28125 C 16.65625 1.539062 17.203125 2.007812 17.640625 2.6875 Z M 17.640625 2.6875 "/></g></g></g><g fill="#f9bf3b" fill-opacity="1"><g transform="translate(254.359438, 149.805068)"><g><path d="M 0.3125 0.578125 L 11.96875 -5.640625 L 12.625 -4.40625 L 0.96875 1.8125 Z M 0.3125 0.578125 "/></g></g></g><g fill="#f9bf3b" fill-opacity="1"><g transform="translate(255.617736, 151.881535)"><g><path d="M 8.90625 -1.640625 L 0.984375 1.859375 L 2.265625 4.75 C 2.597656 5.5 3.050781 6.023438 3.625 6.328125 C 4.195312 6.640625 4.976562 6.765625 5.96875 6.703125 L 3.28125 7.421875 L 0.265625 0.59375 L 12.359375 -4.75 L 15.40625 2.171875 L 14.03125 2.78125 C 14.25 2.21875 14.363281 1.707031 14.375 1.25 C 14.394531 0.800781 14.316406 0.328125 14.140625 -0.171875 C 13.972656 -0.671875 13.738281 -1.269531 13.4375 -1.96875 L 12.8125 -3.359375 L 10.03125 -2.140625 C 9.257812 -1.796875 8.722656 -1.398438 8.421875 -0.953125 C 8.128906 -0.515625 8.03125 -0.00390625 8.125 0.578125 C 8.21875 1.171875 8.4375 1.859375 8.78125 2.640625 L 7.421875 3.234375 C 7.609375 2.867188 7.707031 2.472656 7.71875 2.046875 C 7.726562 1.628906 7.738281 1.195312 7.75 0.75 C 7.769531 0.3125 7.851562 -0.109375 8 -0.515625 C 8.15625 -0.929688 8.457031 -1.304688 8.90625 -1.640625 Z M 8.90625 -1.640625 "/></g></g></g><g fill="#f9bf3b" fill-opacity="1"><g transform="translate(259.258092, 159.75166)"><g><path d="M 8.65625 3.71875 C 8.695312 4.375 8.566406 4.953125 8.265625 5.453125 C 7.960938 5.960938 7.570312 6.421875 7.09375 6.828125 C 6.613281 7.242188 6.128906 7.65625 5.640625 8.0625 C 5.179688 8.4375 4.757812 8.804688 4.375 9.171875 C 4 9.546875 3.722656 9.921875 3.546875 10.296875 C 3.367188 10.671875 3.335938 11.054688 3.453125 11.453125 L 3.296875 11.5 C 3.023438 10.5625 2.9375 9.78125 3.03125 9.15625 C 3.125 8.539062 3.335938 8.035156 3.671875 7.640625 C 4.015625 7.242188 4.410156 6.914062 4.859375 6.65625 C 5.316406 6.394531 5.78125 6.164062 6.25 5.96875 C 6.726562 5.769531 7.15625 5.546875 7.53125 5.296875 C 7.914062 5.054688 8.1875 4.75 8.34375 4.375 C 8.507812 4.007812 8.507812 3.535156 8.34375 2.953125 C 8.082031 2.046875 8.3125 1.191406 9.03125 0.390625 C 9.445312 -0.0664062 10 -0.472656 10.6875 -0.828125 L 0.59375 2.0625 L 0.1875 0.625 L 12.90625 -3.015625 L 13.8125 0.15625 C 14.0625 1.039062 14.195312 1.867188 14.21875 2.640625 C 14.238281 3.421875 14.101562 4.09375 13.8125 4.65625 C 13.519531 5.21875 13.035156 5.597656 12.359375 5.796875 C 11.765625 5.960938 11.226562 5.96875 10.75 5.8125 C 10.269531 5.664062 9.851562 5.40625 9.5 5.03125 C 9.15625 4.664062 8.875 4.226562 8.65625 3.71875 Z M 11.953125 4.375 C 12.628906 4.175781 13.117188 3.859375 13.421875 3.421875 C 13.722656 2.992188 13.878906 2.492188 13.890625 1.921875 C 13.910156 1.359375 13.835938 0.785156 13.671875 0.203125 L 13.171875 -1.53125 L 12.0625 -1.21875 C 11.394531 -1.03125 10.820312 -0.785156 10.34375 -0.484375 C 9.875 -0.179688 9.484375 0.144531 9.171875 0.5 C 8.867188 0.863281 8.648438 1.253906 8.515625 1.671875 C 8.378906 2.097656 8.367188 2.507812 8.484375 2.90625 L 8.53125 3.046875 C 8.726562 3.617188 9.109375 4.050781 9.671875 4.34375 C 10.234375 4.632812 10.992188 4.644531 11.953125 4.375 Z M 11.953125 4.375 "/></g></g></g><g fill="#f9bf3b" fill-opacity="1"><g transform="translate(262.409504, 171.562507)"><g><path d="M 0.125 0.640625 L 13.125 -1.75 L 13.375 -0.359375 L 0.375 2.03125 Z M 0.125 0.640625 "/></g></g></g><g fill="#f9bf3b" fill-opacity="1"><g transform="translate(262.979325, 173.922647)"><g><path d="M 8.984375 1.125 L 0.375 2.0625 L 0.71875 5.21875 C 0.8125 6.03125 1.082031 6.671875 1.53125 7.140625 C 1.976562 7.609375 2.691406 7.957031 3.671875 8.1875 L 0.875 8.0625 L 0.078125 0.65625 L 13.21875 -0.765625 L 14.03125 6.75 L 12.546875 6.90625 C 12.910156 6.425781 13.164062 5.972656 13.3125 5.546875 C 13.46875 5.117188 13.539062 4.640625 13.53125 4.109375 C 13.519531 3.585938 13.472656 2.953125 13.390625 2.203125 L 13.21875 0.671875 L 10.203125 1 C 9.367188 1.09375 8.742188 1.304688 8.328125 1.640625 C 7.910156 1.972656 7.65625 2.429688 7.5625 3.015625 C 7.46875 3.597656 7.46875 4.320312 7.5625 5.1875 L 6.09375 5.34375 C 6.375 5.039062 6.582031 4.6875 6.71875 4.28125 C 6.863281 3.882812 7.007812 3.476562 7.15625 3.0625 C 7.300781 2.65625 7.507812 2.28125 7.78125 1.9375 C 8.0625 1.59375 8.460938 1.320312 8.984375 1.125 Z M 8.984375 1.125 "/></g></g></g><g fill="#f9bf3b" fill-opacity="1"><g transform="translate(97.759246, 200.035138)"><g><path d="M 9.234375 4.125 C 9.128906 3.625 9.171875 3.128906 9.359375 2.640625 C 9.546875 2.148438 9.835938 1.691406 10.234375 1.265625 C 10.722656 0.753906 11.367188 0.34375 12.171875 0.03125 L 0.5 2.421875 L 0.15625 0.734375 L 14.953125 -2.296875 L 15.703125 1.40625 C 15.921875 2.445312 16.003906 3.414062 15.953125 4.3125 C 15.898438 5.21875 15.679688 5.972656 15.296875 6.578125 C 14.910156 7.191406 14.316406 7.582031 13.515625 7.75 C 12.742188 7.90625 12.0625 7.820312 11.46875 7.5 C 10.882812 7.1875 10.398438 6.726562 10.015625 6.125 C 9.640625 5.519531 9.378906 4.851562 9.234375 4.125 Z M 13.171875 6.0625 C 13.960938 5.894531 14.550781 5.570312 14.9375 5.09375 C 15.332031 4.613281 15.566406 4.050781 15.640625 3.40625 C 15.722656 2.757812 15.695312 2.101562 15.5625 1.4375 L 15.15625 -0.578125 L 13.765625 -0.296875 C 13.046875 -0.148438 12.394531 0.0625 11.8125 0.34375 C 11.238281 0.625 10.757812 0.96875 10.375 1.375 C 9.519531 2.195312 9.195312 3.101562 9.40625 4.09375 C 9.550781 4.800781 9.925781 5.363281 10.53125 5.78125 C 11.144531 6.195312 12.023438 6.289062 13.171875 6.0625 Z M 13.171875 6.0625 "/></g></g></g><g fill="#f9bf3b" fill-opacity="1"><g transform="translate(100.037103, 211.499853)"><g><path d="M 10.140625 3.625 C 10.234375 4.375 10.128906 5.046875 9.828125 5.640625 C 9.523438 6.234375 9.113281 6.78125 8.59375 7.28125 C 8.082031 7.789062 7.550781 8.300781 7 8.8125 C 6.519531 9.257812 6.078125 9.707031 5.671875 10.15625 C 5.273438 10.613281 4.976562 11.0625 4.78125 11.5 C 4.59375 11.9375 4.578125 12.375 4.734375 12.8125 L 4.578125 12.875 C 4.210938 11.832031 4.0625 10.957031 4.125 10.25 C 4.195312 9.539062 4.40625 8.945312 4.75 8.46875 C 5.101562 7.988281 5.53125 7.582031 6.03125 7.25 C 6.53125 6.914062 7.039062 6.613281 7.5625 6.34375 C 8.09375 6.082031 8.566406 5.796875 8.984375 5.484375 C 9.398438 5.179688 9.691406 4.816406 9.859375 4.390625 C 10.023438 3.960938 9.988281 3.425781 9.75 2.78125 C 9.394531 1.757812 9.585938 0.769531 10.328125 -0.1875 C 10.765625 -0.75 11.363281 -1.265625 12.125 -1.734375 L 0.8125 2.296875 L 0.25 0.703125 L 14.515625 -4.375 L 15.78125 -0.828125 C 16.132812 0.160156 16.34375 1.101562 16.40625 2 C 16.476562 2.894531 16.367188 3.671875 16.078125 4.328125 C 15.796875 4.984375 15.269531 5.445312 14.5 5.71875 C 13.84375 5.945312 13.238281 5.992188 12.6875 5.859375 C 12.132812 5.722656 11.644531 5.453125 11.21875 5.046875 C 10.800781 4.648438 10.441406 4.175781 10.140625 3.625 Z M 13.9375 4.125 C 14.707031 3.851562 15.25 3.457031 15.5625 2.9375 C 15.882812 2.414062 16.03125 1.832031 16 1.1875 C 15.96875 0.539062 15.835938 -0.109375 15.609375 -0.765625 L 14.90625 -2.71875 L 13.65625 -2.28125 C 12.914062 -2.007812 12.289062 -1.6875 11.78125 -1.3125 C 11.269531 -0.945312 10.832031 -0.546875 10.46875 -0.109375 C 10.164062 0.328125 9.953125 0.796875 9.828125 1.296875 C 9.710938 1.796875 9.734375 2.273438 9.890625 2.734375 L 9.9375 2.875 C 10.226562 3.5 10.703125 3.957031 11.359375 4.25 C 12.023438 4.539062 12.882812 4.5 13.9375 4.125 Z M 13.9375 4.125 "/></g></g></g><g fill="#f9bf3b" fill-opacity="1"><g transform="translate(105.248338, 225.609392)"><g><path d="M 10.03125 -2.515625 L 1.25 2.046875 L 2.921875 5.265625 C 3.347656 6.085938 3.898438 6.65625 4.578125 6.96875 C 5.265625 7.28125 6.175781 7.359375 7.3125 7.203125 L 4.265625 8.21875 L 0.34375 0.671875 L 13.75 -6.296875 L 17.734375 1.359375 L 16.21875 2.15625 C 16.414062 1.488281 16.503906 0.894531 16.484375 0.375 C 16.460938 -0.132812 16.34375 -0.664062 16.125 -1.21875 C 15.90625 -1.769531 15.597656 -2.429688 15.203125 -3.203125 L 14.375 -4.765625 L 11.296875 -3.171875 C 10.441406 -2.722656 9.863281 -2.234375 9.5625 -1.703125 C 9.257812 -1.179688 9.179688 -0.585938 9.328125 0.078125 C 9.472656 0.742188 9.769531 1.515625 10.21875 2.390625 L 8.703125 3.171875 C 8.890625 2.722656 8.972656 2.257812 8.953125 1.78125 C 8.929688 1.300781 8.914062 0.804688 8.90625 0.296875 C 8.894531 -0.203125 8.960938 -0.6875 9.109375 -1.15625 C 9.253906 -1.632812 9.5625 -2.085938 10.03125 -2.515625 Z M 10.03125 -2.515625 "/></g></g></g><g fill="#f9bf3b" fill-opacity="1"><g transform="translate(110.299301, 235.541524)"><g><path d="M 20.25 2.46875 L 7.921875 11.203125 L 6.984375 9.875 L 18.890625 1.4375 C 18.253906 1.03125 17.519531 0.804688 16.6875 0.765625 C 15.851562 0.722656 14.984375 0.816406 14.078125 1.046875 C 13.171875 1.273438 12.25 1.59375 11.3125 2 C 10.382812 2.40625 9.488281 2.851562 8.625 3.34375 C 7.757812 3.84375 6.957031 4.332031 6.21875 4.8125 C 5.476562 5.289062 4.84375 5.71875 4.3125 6.09375 L 4.1875 5.921875 L 11.71875 -6.46875 L 12.53125 -7.796875 L 0.5 0.71875 L 0.4375 0.609375 L 12.765625 -8.125 L 13.796875 -6.671875 L 7.40625 3.828125 C 8.257812 3.328125 9.160156 2.84375 10.109375 2.375 C 11.066406 1.90625 12.03125 1.515625 13 1.203125 C 13.976562 0.890625 14.921875 0.695312 15.828125 0.625 C 16.742188 0.550781 17.578125 0.648438 18.328125 0.921875 C 19.078125 1.203125 19.71875 1.71875 20.25 2.46875 Z M 20.25 2.46875 "/></g></g></g><g fill="#f9bf3b" fill-opacity="1"><g transform="translate(119.139545, 247.52827)"><g><path d="M 0.484375 0.5625 L 11.921875 -9.3125 L 12.984375 -8.09375 L 1.546875 1.78125 Z M 0.484375 0.5625 "/></g></g></g><g fill="#f9bf3b" fill-opacity="1"><g transform="translate(121.279811, 250.314235)"><g><path d="M 12.296875 -9.171875 L 5.5625 -2.234375 C 4.945312 -1.597656 4.5 -0.894531 4.21875 -0.125 C 3.945312 0.644531 3.847656 1.410156 3.921875 2.171875 C 3.992188 2.941406 4.253906 3.640625 4.703125 4.265625 C 5.160156 4.890625 5.804688 5.382812 6.640625 5.75 C 7.640625 6.207031 8.644531 6.328125 9.65625 6.109375 C 10.664062 5.890625 11.597656 5.335938 12.453125 4.453125 C 13.003906 3.890625 13.597656 3.265625 14.234375 2.578125 C 14.878906 1.890625 15.484375 1.1875 16.046875 0.46875 C 16.609375 -0.238281 17.078125 -0.929688 17.453125 -1.609375 C 17.835938 -2.296875 18.066406 -2.929688 18.140625 -3.515625 L 19.34375 -2.34375 L 12.609375 4.59375 C 11.785156 5.445312 10.84375 6.003906 9.78125 6.265625 C 8.726562 6.523438 7.65625 6.40625 6.5625 5.90625 C 5.632812 5.488281 4.851562 4.910156 4.21875 4.171875 C 3.59375 3.441406 3.164062 2.632812 2.9375 1.75 C 2.707031 0.863281 2.695312 -0.0234375 2.90625 -0.921875 C 3.125 -1.828125 3.601562 -2.660156 4.34375 -3.421875 L 11.078125 -10.359375 Z M 12.296875 -9.171875 "/></g></g></g><g fill="#f9bf3b" fill-opacity="1"><g transform="translate(131.101466, 259.84546)"><g><path d="M 19.953125 -4.328125 L 11.171875 7.96875 L 9.84375 7.015625 L 18.3125 -4.859375 C 17.570312 -5.035156 16.804688 -5.003906 16.015625 -4.765625 C 15.222656 -4.535156 14.429688 -4.160156 13.640625 -3.640625 C 12.847656 -3.117188 12.082031 -2.515625 11.34375 -1.828125 C 10.601562 -1.140625 9.90625 -0.421875 9.25 0.328125 C 8.601562 1.078125 8.007812 1.800781 7.46875 2.5 C 6.925781 3.195312 6.460938 3.8125 6.078125 4.34375 L 5.90625 4.203125 L 8.9375 -9.984375 L 9.28125 -11.484375 L 0.71875 0.515625 L 0.609375 0.4375 L 9.390625 -11.859375 L 10.84375 -10.828125 L 8.25 1.1875 C 8.882812 0.425781 9.578125 -0.328125 10.328125 -1.078125 C 11.078125 -1.828125 11.859375 -2.507812 12.671875 -3.125 C 13.484375 -3.75 14.3125 -4.242188 15.15625 -4.609375 C 16 -4.984375 16.820312 -5.160156 17.625 -5.140625 C 18.425781 -5.128906 19.203125 -4.859375 19.953125 -4.328125 Z M 19.953125 -4.328125 "/></g></g></g><g fill="#f9bf3b" fill-opacity="1"><g transform="translate(143.437263, 268.318531)"><g/></g></g><g fill="#f9bf3b" fill-opacity="1"><g transform="translate(149.029909, 271.867859)"><g><path d="M 17.625 3.890625 L 17.640625 3.984375 C 17.265625 4.210938 16.863281 4.429688 16.4375 4.640625 C 16.019531 4.847656 15.582031 4.988281 15.125 5.0625 C 14.675781 5.144531 14.226562 5.101562 13.78125 4.9375 C 13.144531 4.6875 12.601562 4.328125 12.15625 3.859375 C 11.707031 3.398438 11.34375 2.9375 11.0625 2.46875 C 10.238281 2.675781 9.40625 2.847656 8.5625 2.984375 C 7.726562 3.117188 6.914062 3.160156 6.125 3.109375 C 5.34375 3.066406 4.613281 2.890625 3.9375 2.578125 C 3.257812 2.273438 2.664062 1.785156 2.15625 1.109375 C 1.789062 0.578125 1.582031 -0.0078125 1.53125 -0.65625 C 1.488281 -1.3125 1.59375 -1.960938 1.84375 -2.609375 C 2.101562 -3.265625 2.5 -3.851562 3.03125 -4.375 C 3.5625 -4.90625 4.222656 -5.320312 5.015625 -5.625 C 5.816406 -5.925781 6.726562 -6.039062 7.75 -5.96875 C 7.46875 -7.007812 7.382812 -7.957031 7.5 -8.8125 C 7.625 -9.664062 7.894531 -10.382812 8.3125 -10.96875 C 8.738281 -11.550781 9.269531 -11.945312 9.90625 -12.15625 C 10.539062 -12.363281 11.238281 -12.316406 12 -12.015625 C 12.625 -11.773438 13.113281 -11.410156 13.46875 -10.921875 C 13.820312 -10.429688 14.015625 -9.894531 14.046875 -9.3125 C 14.085938 -8.738281 13.960938 -8.1875 13.671875 -7.65625 C 13.378906 -7.125 12.894531 -6.679688 12.21875 -6.328125 C 11.550781 -5.984375 10.695312 -5.8125 9.65625 -5.8125 C 9.957031 -4.65625 10.320312 -3.410156 10.75 -2.078125 C 11.1875 -0.742188 11.707031 0.582031 12.3125 1.90625 C 13 1.675781 13.609375 1.394531 14.140625 1.0625 C 14.679688 0.726562 15.070312 0.457031 15.3125 0.25 L 15.375 0.40625 C 15.050781 0.664062 14.628906 0.953125 14.109375 1.265625 C 13.597656 1.578125 13.007812 1.84375 12.34375 2.0625 C 12.613281 2.46875 12.878906 2.859375 13.140625 3.234375 C 13.410156 3.609375 13.734375 3.945312 14.109375 4.25 C 14.640625 4.601562 15.171875 4.742188 15.703125 4.671875 C 16.242188 4.609375 16.882812 4.347656 17.625 3.890625 Z M 7.796875 -5.890625 C 6.992188 -5.898438 6.253906 -5.773438 5.578125 -5.515625 C 4.898438 -5.253906 4.328125 -4.878906 3.859375 -4.390625 C 3.390625 -3.910156 3.078125 -3.332031 2.921875 -2.65625 C 2.765625 -1.976562 2.816406 -1.226562 3.078125 -0.40625 C 3.429688 0.582031 4.003906 1.316406 4.796875 1.796875 C 5.585938 2.273438 6.519531 2.550781 7.59375 2.625 C 8.664062 2.695312 9.796875 2.609375 10.984375 2.359375 C 10.703125 1.847656 10.40625 1.238281 10.09375 0.53125 C 9.78125 -0.164062 9.472656 -0.90625 9.171875 -1.6875 C 8.867188 -2.476562 8.597656 -3.238281 8.359375 -3.96875 C 8.117188 -4.695312 7.929688 -5.335938 7.796875 -5.890625 Z M 11.921875 -11.8125 C 11.179688 -12.101562 10.550781 -12.097656 10.03125 -11.796875 C 9.519531 -11.503906 9.203125 -10.878906 9.078125 -9.921875 C 8.953125 -8.972656 9.117188 -7.644531 9.578125 -5.9375 C 10.242188 -6.039062 10.835938 -6.273438 11.359375 -6.640625 C 11.878906 -7.003906 12.296875 -7.4375 12.609375 -7.9375 C 12.921875 -8.4375 13.113281 -8.945312 13.1875 -9.46875 C 13.269531 -9.988281 13.207031 -10.457031 13 -10.875 C 12.789062 -11.300781 12.429688 -11.613281 11.921875 -11.8125 Z M 11.921875 -11.8125 "/></g></g></g><g fill="#f9bf3b" fill-opacity="1"><g transform="translate(167.090905, 278.424284)"><g/></g></g><g fill="#f9bf3b" fill-opacity="1"><g transform="translate(173.273603, 280.009522)"><g><path d="M 10.15625 -1.703125 L 9.203125 1.359375 L 0.734375 0.109375 L 2.953125 -14.84375 L 4.65625 -14.59375 L 2.46875 0.1875 L 6.046875 0.71875 C 6.960938 0.851562 7.738281 0.734375 8.375 0.359375 C 9.007812 -0.00390625 9.601562 -0.691406 10.15625 -1.703125 Z M 10.15625 -1.703125 "/></g></g></g><g fill="#f9bf3b" fill-opacity="1"><g transform="translate(184.291024, 281.681113)"><g><path d="M 2.703125 -15.09375 L 2.53125 -5.4375 C 2.519531 -4.550781 2.675781 -3.726562 3 -2.96875 C 3.320312 -2.21875 3.769531 -1.585938 4.34375 -1.078125 C 4.914062 -0.578125 5.582031 -0.25 6.34375 -0.09375 C 7.101562 0.0507812 7.921875 -0.03125 8.796875 -0.34375 C 9.816406 -0.6875 10.625 -1.285156 11.21875 -2.140625 C 11.8125 -2.992188 12.117188 -4.035156 12.140625 -5.265625 C 12.160156 -6.054688 12.164062 -6.914062 12.15625 -7.84375 C 12.15625 -8.78125 12.113281 -9.703125 12.03125 -10.609375 C 11.957031 -11.523438 11.828125 -12.359375 11.640625 -13.109375 C 11.453125 -13.867188 11.1875 -14.484375 10.84375 -14.953125 L 12.515625 -14.921875 L 12.34375 -5.265625 C 12.320312 -4.078125 12.015625 -3.023438 11.421875 -2.109375 C 10.828125 -1.203125 9.957031 -0.554688 8.8125 -0.171875 C 7.863281 0.148438 6.910156 0.257812 5.953125 0.15625 C 4.992188 0.0507812 4.125 -0.242188 3.34375 -0.734375 C 2.570312 -1.222656 1.957031 -1.867188 1.5 -2.671875 C 1.039062 -3.472656 0.820312 -4.40625 0.84375 -5.46875 L 1.015625 -15.125 Z M 2.703125 -15.09375 "/></g></g></g><g fill="#f9bf3b" fill-opacity="1"><g transform="translate(197.931246, 281.877981)"><g><path d="M 10.25 -16.375 C 9.519531 -16.28125 8.90625 -16.03125 8.40625 -15.625 C 7.90625 -15.21875 7.484375 -14.695312 7.140625 -14.0625 C 6.804688 -13.425781 6.519531 -12.707031 6.28125 -11.90625 C 6.039062 -11.113281 5.828125 -10.285156 5.640625 -9.421875 L 12.109375 -1.515625 L 10.203125 -1.28125 L 5.203125 -7.359375 C 5.003906 -6.472656 4.789062 -5.613281 4.5625 -4.78125 C 4.34375 -3.945312 4.066406 -3.191406 3.734375 -2.515625 C 3.410156 -1.835938 3.007812 -1.285156 2.53125 -0.859375 C 2.0625 -0.441406 1.46875 -0.1875 0.75 -0.09375 L 0.734375 -0.21875 C 1.410156 -0.300781 1.984375 -0.554688 2.453125 -0.984375 C 2.921875 -1.421875 3.3125 -1.976562 3.625 -2.65625 C 3.9375 -3.332031 4.203125 -4.085938 4.421875 -4.921875 C 4.648438 -5.765625 4.867188 -6.628906 5.078125 -7.515625 L -1.125 -15.109375 L 0.828125 -15.359375 L 5.515625 -9.609375 C 5.703125 -10.484375 5.921875 -11.3125 6.171875 -12.09375 C 6.421875 -12.875 6.71875 -13.582031 7.0625 -14.21875 C 7.414062 -14.863281 7.847656 -15.382812 8.359375 -15.78125 C 8.878906 -16.1875 9.503906 -16.4375 10.234375 -16.53125 Z M 10.25 -16.375 "/></g></g></g><g fill="#f9bf3b" fill-opacity="1"><g transform="translate(211.419818, 280.14263)"><g><path d="M -1.65625 -15.25 L 0.890625 -5.9375 C 1.128906 -5.082031 1.507812 -4.335938 2.03125 -3.703125 C 2.5625 -3.066406 3.171875 -2.585938 3.859375 -2.265625 C 4.554688 -1.941406 5.289062 -1.8125 6.0625 -1.875 C 6.832031 -1.945312 7.59375 -2.253906 8.34375 -2.796875 C 9.226562 -3.421875 9.835938 -4.222656 10.171875 -5.203125 C 10.503906 -6.191406 10.503906 -7.28125 10.171875 -8.46875 C 9.960938 -9.226562 9.722656 -10.054688 9.453125 -10.953125 C 9.191406 -11.847656 8.894531 -12.71875 8.5625 -13.5625 C 8.226562 -14.414062 7.867188 -15.175781 7.484375 -15.84375 C 7.097656 -16.519531 6.671875 -17.039062 6.203125 -17.40625 L 7.8125 -17.84375 L 10.359375 -8.53125 C 10.679688 -7.382812 10.679688 -6.285156 10.359375 -5.234375 C 10.046875 -4.191406 9.394531 -3.328125 8.40625 -2.640625 C 7.582031 -2.054688 6.695312 -1.679688 5.75 -1.515625 C 4.8125 -1.347656 3.898438 -1.390625 3.015625 -1.640625 C 2.128906 -1.890625 1.351562 -2.335938 0.6875 -2.984375 C 0.0195312 -3.628906 -0.453125 -4.46875 -0.734375 -5.5 L -3.28125 -14.8125 Z M -1.65625 -15.25 "/></g></g></g><g fill="#f9bf3b" fill-opacity="1"><g transform="translate(224.621193, 276.538626)"><g><path d="M 2.859375 -10.390625 C 3.585938 -10.535156 4.257812 -10.476562 4.875 -10.21875 C 5.5 -9.96875 6.082031 -9.601562 6.625 -9.125 C 7.164062 -8.644531 7.707031 -8.15625 8.25 -7.65625 C 8.738281 -7.207031 9.222656 -6.796875 9.703125 -6.421875 C 10.179688 -6.054688 10.648438 -5.796875 11.109375 -5.640625 C 11.566406 -5.484375 12.007812 -5.503906 12.4375 -5.703125 L 12.5 -5.546875 C 11.488281 -5.097656 10.625 -4.878906 9.90625 -4.890625 C 9.1875 -4.898438 8.578125 -5.0625 8.078125 -5.375 C 7.578125 -5.6875 7.144531 -6.078125 6.78125 -6.546875 C 6.414062 -7.023438 6.078125 -7.519531 5.765625 -8.03125 C 5.453125 -8.539062 5.128906 -8.988281 4.796875 -9.375 C 4.460938 -9.769531 4.078125 -10.035156 3.640625 -10.171875 C 3.203125 -10.304688 2.671875 -10.234375 2.046875 -9.953125 C 1.054688 -9.515625 0.0507812 -9.625 -0.96875 -10.28125 C -1.5625 -10.6875 -2.117188 -11.25 -2.640625 -11.96875 L 2.234375 -0.984375 L 0.6875 -0.296875 L -5.453125 -14.140625 L -2.015625 -15.671875 C -1.046875 -16.097656 -0.125 -16.378906 0.75 -16.515625 C 1.632812 -16.660156 2.414062 -16.613281 3.09375 -16.375 C 3.78125 -16.132812 4.285156 -15.640625 4.609375 -14.890625 C 4.890625 -14.253906 4.984375 -13.65625 4.890625 -13.09375 C 4.804688 -12.53125 4.578125 -12.019531 4.203125 -11.5625 C 3.828125 -11.113281 3.378906 -10.722656 2.859375 -10.390625 Z M 3.0625 -14.203125 C 2.738281 -14.953125 2.300781 -15.460938 1.75 -15.734375 C 1.207031 -16.015625 0.617188 -16.117188 -0.015625 -16.046875 C -0.660156 -15.972656 -1.300781 -15.796875 -1.9375 -15.515625 L -3.828125 -14.671875 L -3.296875 -13.453125 C -2.972656 -12.734375 -2.609375 -12.128906 -2.203125 -11.640625 C -1.796875 -11.160156 -1.359375 -10.765625 -0.890625 -10.453125 C -0.429688 -10.171875 0.046875 -9.988281 0.546875 -9.90625 C 1.054688 -9.820312 1.535156 -9.878906 1.984375 -10.078125 L 2.109375 -10.125 C 2.710938 -10.445312 3.132812 -10.953125 3.375 -11.640625 C 3.625 -12.328125 3.519531 -13.179688 3.0625 -14.203125 Z M 3.0625 -14.203125 "/></g></g></g><g fill="#f9bf3b" fill-opacity="1"><g transform="translate(238.418247, 270.32644)"><g><path d="M 2.03125 -17.828125 L 2.75 -9.875 L 6.4375 -4.140625 L 5.015625 -3.21875 L 1.578125 -8.5625 L -7.5625 -13.140625 L -5.9375 -14.171875 L -0.171875 -11.296875 L 2.59375 -9.9375 L 1.859375 -17.625 C 1.835938 -17.945312 1.75 -18.171875 1.59375 -18.296875 C 1.4375 -18.421875 1.265625 -18.484375 1.078125 -18.484375 C 0.890625 -18.484375 0.734375 -18.453125 0.609375 -18.390625 L 2.625 -19.6875 C 2.488281 -19.582031 2.367188 -19.40625 2.265625 -19.15625 C 2.171875 -18.90625 2.101562 -18.660156 2.0625 -18.421875 C 2.019531 -18.179688 2.007812 -17.984375 2.03125 -17.828125 Z M 2.03125 -17.828125 "/></g></g></g></svg>